/* XPM */
static char *image_xpm[] = {
/* width height ncolors chars_per_pixel */
"128 128 4 1",
"  c #080808",
". c #ffffff",
"+ c #424242",
"@ c #c5c5c5",
".....................................................++++++++++++++++++++++.....................................................",
"................................................++++++++++++++++++++++++++++++++................................................",
".............................................++++++++++++++++++++++++++++++++++++++.............................................",
"..........................................++++++++++++++++++++++++++++++++++++++++++++..........................................",
".......................................++++++++++++++++++++++++++++++++++++++++++++++++++.......................................",
".....................................++++++++++++++++++++++++++++++++++++++++++++++++++++++.....................................",
"...................................++++++++++++++++++++                  ++++++++++++++++++++...................................",
".................................+++++++++++++++++      +       +       +     +++++++++++++++++.................................",
"...............................++++++++++++++++                                  ++++++++++++++++...............................",
"..............................++++++++++++++                                        ++++++++++++++..............................",
"............................+++++++++++++                                              +++++++++++++............................",
"...........................++++++++++++                                                  ++++++++++++...........................",
".........................++++++++++++                                                      ++++++++++++.........................",
"........................+++++++++++                                                          +++++++++++........................",
".......................+++++++++++                                                            +++++++++++.......................",
"......................+++++++++++       +       +       +       +       +       +       +       ++++++++++......................",
".....................++++++++++                                                                  ++++++++++.....................",
"....................+++++++++                                                                      +++++++++....................",
"..................++++++++++                                                                        ++++++++++..................",
"..................+++++++++                                                                          +++++++++..................",
".................+++++++++                                                                            +++++++++.................",
"................+++++++++                                                               @@@            +++++++++................",
"...............++++++++                                                                @@@@              ++++++++...............",
"..............++++++++  +       +       +       +       +       +       +       +     @@.@      +       + ++++++++..............",
".............+++++++++                                                              @@@@@                 +++++++++.............",
"............+++++++++                                                            @@@@@@@                   +++++++++............",
"............++++++++                                                          @@@@@@@@@@                    ++++++++............",
"...........++++++++                                                         @@@@@@   @@                      ++++++++...........",
"..........++++++++                                                        @@@@@     @@@                       ++++++++..........",
"..........+++++++                                                       @@@@@       @@                         +++++++..........",
".........++++++++                                                     @@@@@        @@@                         ++++++++.........",
"........+++++++++       +       +       +       +       +       +   @@@@.       + @@@@  +       +       +       ++++++++........",
"........+++++++                                                    @@@@           @@@                            +++++++........",
".......++++++++                                                  @@@@            @@@@                            ++++++++.......",
".......+++++++                                                 @@@@@             @@@@                             +++++++.......",
"......+++++++                                                 @@@@              @@@@@                              +++++++......",
"......+++++++                                                @@@@               @@@@                               +++++++......",
".....+++++++                                               @@@@                @@@@@                                +++++++.....",
".....+++++++                                              @@@@                 @@@@@                                +++++++.....",
"....+++++++     +       +       +       +       +       +@@@@   +       +     @@.@@@    +       +       +       +    +++++++....",
"....+++++++                                             @@@@                  @@@@@@                                 +++++++....",
"....++++++                                             @@@@                   @@@@@@                                  ++++++....",
"...+++++++                                            @@@@                   @@@@@@@                                  +++++++...",
"...+++++++                                           @@@@                    @@@@@@@                                  +++++++...",
"...++++++                                           @@@@                     @@@@@@@                                   ++++++...",
"..+++++++                                           @@@                      @@@@@@@                                   +++++++..",
"..+++++++                                          @@@@                     @@@@@@@@                                   +++++++..",
"..+++++++       +       +       +       +       + @@@@  +       +       +   @@@@.@@@    +       +       +       +       ++++++..",
".+++++++                                          @@@@                      @@@@@@@@                                    +++++++.",
".+++++++                                         @@@@                       @@@@@@@@                                    +++++++.",
".++++++                                          @@@@                       @@@@@@@@                                     ++++++.",
".++++++                                         @@@@                        @@@@@@@@                                     ++++++.",
".++++++                                         @@@@                        @@@@@@@@                                     ++++++.",
"+++++++                                         @@@@                       @@@@@@@@@                                     +++++++",
"+++++++                                        @@@@@                       @@@@@@@@@                                     +++++++",
"++++++  +       +       +       +       +      @.@@@    +       +       +  @@@@@.@@@    +       +       +       +       + ++++++",
"++++++                                         @@@@                        @@@@@@@@@                                      ++++++",
"++++++                                         @@@@                        @@@@@@@@@                                      ++++++",
"++++++                                         @@@@@                       @@@@@@@@@                                      ++++++",
"++++++                                         @@@@@                       @@@@@@@@@                                      ++++++",
"++++++                                         @@@@@                       @@@@@@@@@@                                     ++++++",
"++++++                                         @@@@@                       @@@@@@@@@@                                     ++++++",
"++++++                                         @@@@@@                      @@@@@@@@@@                                     ++++++",
"++++++  +       +       +       +       +      @.@@@@   +       +       +  @@@@@.@@@@   +       +       +       +       + ++++++",
"++++++                                         @@@@@@@                     @@@@@@@@@@                                     ++++++",
"++++++                                         @@@@@@@               @     @@@@@@@@@@                                     ++++++",
"++++++                                          @@@@@@@@            @@     @@@@@@@@@@                                     ++++++",
"++++++                                          @@@@@@@@@         @@@@     @@@@@@@@@@                                     ++++++",
"++++++                                           @@@@@@@@@@@@ @@@@@@@@      @@@@@@@@@                                     ++++++",
"++++++                                            @@@@@@@@@@@@@@@@@@@       @@@@@@@@@                                     ++++++",
"++++++                                            @@@@@@@@@@@@@@@@@@@       @@@@@@@@@                                     ++++++",
"++++++  +       +       +       +       +       +   @@@@.@@@@@@@.@@@@   +   @@@@.@@@@   +       +       +       +       + ++++++",
"++++++                                               @@@@@@@@@@@@@@@        @@@@@@@@@@                                    ++++++",
"+++++++                                               @@@@@@@@@@@@@         @@@@@@@@@@                                   +++++++",
"+++++++                                                  @@@@@@@            @@@@@@@@@                                    +++++++",
".++++++                                                                     @@@@@@@@@                                    ++++++.",
".++++++                                                                    @@@@@@@@@@                                    ++++++.",
".++++++                                                                    @@@@@@@@@@                                    ++++++.",
".+++++++                                                                   @@@@@@@@@@                                   +++++++.",
".++++++++       +       +       +       +       +       +       +       +  @@@@@.@@@@   +       +       +       +       +++++++.",
"..++++++                                                                   @@@@@@@@@@                                   ++++++..",
"..+++++++                                                                  @@@@@@@@@@                                  +++++++..",
"..+++++++                                                                  @@@@@@@@@                                   +++++++..",
"...++++++                                                                  @@@@@@@@@                                   ++++++...",
"...+++++++                                                                 @@@@@@@@@                                  +++++++...",
"...+++++++                                                                 @@@@@@@@@                                  +++++++...",
"....++++++                                                                @@@@@@@@@                                   ++++++....",
"....+++++++     +       +       +       +       +       +       +       + @@@@@@.@@     +       +       +       +    +++++++....",
"....+++++++                              @@@@@                            @@@@@@@@                                   +++++++....",
".....+++++++                           @@@@@@@@@                          @@@@@@@@                                  +++++++.....",
".....+++++++                          @@@@@@@@@@@                        @@@@@@@@                                   +++++++.....",
"......+++++++                         @@@@@@@@@@                         @@@@@@@@                                  +++++++......",
"......+++++++                        @@@@@@@@@                           @@@@@@@                                   +++++++......",
".......+++++++                       @@@@@@@@                           @@@@@@@@                                  +++++++.......",
".......++++++++                      @@@@@@@                            @@@@@@@                                  ++++++++.......",
"........+++++++ +       +       +    @@@.@@@    +       +       +      @.@@@@@  +       +       +       +       ++++++++........",
"........++++++++                     @@@@@@                            @@@@@@                                   ++++++++........",
".........++++++++                    @@@@@@                           @@@@@@@                                  ++++++++.........",
"..........+++++++                    @@@@@@@                         @@@@@@                                    +++++++..........",
"..........++++++++                    @@@@@@                        @@@@@@                                    ++++++++..........",
"...........++++++++                   @@@@@@                       @@@@@@                                    ++++++++...........",
"............++++++++                   @@@@@@                     @@@@@@                                    ++++++++............",
"............+++++++++                   @@@@@@                  @@@@@@@                                    +++++++++............",
".............+++++++++  +       +       +@@@@@@ +       +     @@.@@@@   +       +       +       +       + +++++++++.............",
"..............++++++++                     @@@@@@          @@@@@@@@                                       ++++++++..............",
"...............++++++++                      @@@@@@@@@@@@@@@@@@@@                                        ++++++++...............",
"................+++++++++                      @@@@@@@@@@@@@@                                          +++++++++................",
".................+++++++++                                                                            +++++++++.................",
"..................+++++++++                                                                          +++++++++..................",
"..................++++++++++                                                                        ++++++++++..................",
"....................+++++++++                                                                      +++++++++....................",
".....................++++++++++ +       +       +       +       +       +       +       +       +++++++++++.....................",
"......................++++++++++                                                                ++++++++++......................",
".......................+++++++++++                                                            +++++++++++.......................",
"........................+++++++++++                                                          +++++++++++........................",
".........................++++++++++++                                                      ++++++++++++.........................",
"...........................++++++++++++                                                  ++++++++++++...........................",
"............................+++++++++++++                                              +++++++++++++............................",
"..............................++++++++++++++                                        ++++++++++++++..............................",
"...............................++++++++++++++++ +       +       +       +       +++++++++++++++++...............................",
".................................+++++++++++++++++                            +++++++++++++++++.................................",
"...................................++++++++++++++++++++                  ++++++++++++++++++++...................................",
".....................................++++++++++++++++++++++++++++++++++++++++++++++++++++++.....................................",
".......................................++++++++++++++++++++++++++++++++++++++++++++++++++.......................................",
"..........................................++++++++++++++++++++++++++++++++++++++++++++..........................................",
".............................................++++++++++++++++++++++++++++++++++++++.............................................",
"................................................++++++++++++++++++++++++++++++++................................................",
".....................................................++++++++++++++++++++++.....................................................",
};